<svg width="1200" height="1200" shape-rendering="crispEdges" xmlns="http://www.w3.org/2000/svg" version="1.2" viewBox="0 0 24 24"><style>rect{width:1px;height:1px}</style><rect x="0" y="0" style="width:100%;height:100%" fill="#004BFF" /><g style="transform: translate(calc(50% - 12px), calc(50% - 12px))"><rect x="8" y="4" fill="#8119b7ff"/><rect x="9" y="4" fill="#8119b7ff"/><rect x="10" y="4" fill="#8119b7ff"/><rect x="11" y="4" fill="#8119b7ff"/><rect x="12" y="4" fill="#8119b7ff"/><rect x="13" y="4" fill="#8119b7ff"/><rect x="14" y="4" fill="#8119b7ff"/><rect x="7" y="5" fill="#8119b7ff"/><rect x="8" y="5" fill="#8119b7ff"/><rect x="9" y="5" fill="#8119b7ff"/><rect x="10" y="5" fill="#8119b7ff"/><rect x="11" y="5" fill="#8119b7ff"/><rect x="12" y="5" fill="#8119b7ff"/><rect x="13" y="5" fill="#b261dcff"/><rect x="14" y="5" fill="#8119b7ff"/><rect x="15" y="5" fill="#8119b7ff"/><rect x="6" y="6" fill="#8119b7ff"/><rect x="7" y="6" fill="#8119b7ff"/><rect x="8" y="6" fill="#8119b7ff"/><rect x="9" y="6" fill="#8119b7ff"/><rect x="10" y="6" fill="#8119b7ff"/><rect x="11" y="6" fill="#8119b7ff"/><rect x="12" y="6" fill="#8119b7ff"/><rect x="13" y="6" fill="#8119b7ff"/><rect x="14" y="6" fill="#b261dcff"/><rect x="15" y="6" fill="#8119b7ff"/><rect x="6" y="7" fill="#8119b7ff"/><rect x="7" y="7" fill="#8119b7ff"/><rect x="8" y="7" fill="#8119b7ff"/><rect x="9" y="7" fill="#8119b7ff"/><rect x="10" y="7" fill="#8119b7ff"/><rect x="11" y="7" fill="#8119b7ff"/><rect x="12" y="7" fill="#8119b7ff"/><rect x="13" y="7" fill="#8119b7ff"/><rect x="14" y="7" fill="#8119b7ff"/><rect x="15" y="7" fill="#8119b7ff"/><rect x="16" y="7" fill="#8119b7ff"/><rect x="17" y="7" fill="#8119b7ff"/><rect x="18" y="7" fill="#8119b7ff"/><rect x="6" y="8" fill="#8119b7ff"/><rect x="7" y="8" fill="#8119b7ff"/><rect x="8" y="8" fill="#8119b7ff"/><rect x="9" y="8" fill="#8119b7ff"/><rect x="10" y="8" fill="#8119b7ff"/><rect x="11" y="8" fill="#8119b7ff"/><rect x="12" y="8" fill="#8119b7ff"/><rect x="13" y="8" fill="#8119b7ff"/><rect x="14" y="8" fill="#8119b7ff"/><rect x="15" y="8" fill="#8119b7ff"/><rect x="16" y="8" fill="#8119b7ff"/><rect x="17" y="8" fill="#8119b7ff"/><rect x="18" y="8" fill="#8119b7ff"/><rect x="19" y="8" fill="#8119b7ff"/><rect x="6" y="9" fill="#000000ff"/><rect x="7" y="9" fill="#ead9d9ff"/><rect x="8" y="9" fill="#ead9d9ff"/><rect x="9" y="9" fill="#ead9d9ff"/><rect x="10" y="9" fill="#ead9d9ff"/><rect x="11" y="9" fill="#ead9d9ff"/><rect x="12" y="9" fill="#ead9d9ff"/><rect x="13" y="9" fill="#ead9d9ff"/><rect x="14" y="9" fill="#ead9d9ff"/><rect x="15" y="9" fill="#ead9d9ff"/><rect x="16" y="9" fill="#000000ff"/><rect x="6" y="10" fill="#f0f0f0ff"/><rect x="7" y="10" fill="#f0f0f0ff"/><rect x="8" y="10" fill="#f0f0f0ff"/><rect x="9" y="10" fill="#f0f0f0ff"/><rect x="10" y="10" fill="#f0f0f0ff"/><rect x="11" y="10" fill="#f0f0f0ff"/><rect x="12" y="10" fill="#f0f0f0ff"/><rect x="13" y="10" fill="#f0f0f0ff"/><rect x="14" y="10" fill="#f0f0f0ff"/><rect x="15" y="10" fill="#f0f0f0ff"/><rect x="16" y="10" fill="#f0f0f0ff"/><rect x="6" y="11" fill="#000000ff"/><rect x="7" y="11" fill="#f0f0f0ff"/><rect x="8" y="11" fill="#f0f0f0ff"/><rect x="9" y="11" fill="#328dfdff"/><rect x="10" y="11" fill="#328dfdff"/><rect x="11" y="11" fill="#328dfdff"/><rect x="12" y="11" fill="#f0f0f0ff"/><rect x="13" y="11" fill="#fd3232ff"/><rect x="14" y="11" fill="#fd3232ff"/><rect x="15" y="11" fill="#fd3232ff"/><rect x="16" y="11" fill="#f0f0f0ff"/><rect x="5" y="12" fill="#000000ff"/><rect x="6" y="12" fill="#ead9d9ff"/><rect x="7" y="12" fill="#ead9d9ff"/><rect x="8" y="12" fill="#f0f0f0ff"/><rect x="9" y="12" fill="#328dfdff"/><rect x="10" y="12" fill="#328dfdff"/><rect x="11" y="12" fill="#328dfdff"/><rect x="12" y="12" fill="#f0f0f0ff"/><rect x="13" y="12" fill="#fd3232ff"/><rect x="14" y="12" fill="#fd3232ff"/><rect x="15" y="12" fill="#fd3232ff"/><rect x="16" y="12" fill="#f0f0f0ff"/><rect x="5" y="13" fill="#000000ff"/><rect x="6" y="13" fill="#ead9d9ff"/><rect x="7" y="13" fill="#ead9d9ff"/><rect x="8" y="13" fill="#f0f0f0ff"/><rect x="9" y="13" fill="#f0f0f0ff"/><rect x="10" y="13" fill="#f0f0f0ff"/><rect x="11" y="13" fill="#f0f0f0ff"/><rect x="12" y="13" fill="#f0f0f0ff"/><rect x="13" y="13" fill="#f0f0f0ff"/><rect x="14" y="13" fill="#f0f0f0ff"/><rect x="15" y="13" fill="#f0f0f0ff"/><rect x="16" y="13" fill="#f0f0f0ff"/><rect x="5" y="14" fill="#000000ff"/><rect x="6" y="14" fill="#000000ff"/><rect x="7" y="14" fill="#ead9d9ff"/><rect x="8" y="14" fill="#ead9d9ff"/><rect x="9" y="14" fill="#ead9d9ff"/><rect x="10" y="14" fill="#ead9d9ff"/><rect x="11" y="14" fill="#ead9d9ff"/><rect x="12" y="14" fill="#ead9d9ff"/><rect x="13" y="14" fill="#ead9d9ff"/><rect x="14" y="14" fill="#ead9d9ff"/><rect x="15" y="14" fill="#ead9d9ff"/><rect x="16" y="14" fill="#000000ff"/><rect x="6" y="15" fill="#000000ff"/><rect x="7" y="15" fill="#ead9d9ff"/><rect x="8" y="15" fill="#ead9d9ff"/><rect x="9" y="15" fill="#ead9d9ff"/><rect x="10" y="15" fill="#ead9d9ff"/><rect x="11" y="15" fill="#ead9d9ff"/><rect x="12" y="15" fill="#000000ff"/><rect x="13" y="15" fill="#000000ff"/><rect x="14" y="15" fill="#ead9d9ff"/><rect x="15" y="15" fill="#ead9d9ff"/><rect x="16" y="15" fill="#000000ff"/><rect x="6" y="16" fill="#000000ff"/><rect x="7" y="16" fill="#ead9d9ff"/><rect x="8" y="16" fill="#ead9d9ff"/><rect x="9" y="16" fill="#ead9d9ff"/><rect x="10" y="16" fill="#ead9d9ff"/><rect x="11" y="16" fill="#ead9d9ff"/><rect x="12" y="16" fill="#ead9d9ff"/><rect x="13" y="16" fill="#ead9d9ff"/><rect x="14" y="16" fill="#ead9d9ff"/><rect x="15" y="16" fill="#ead9d9ff"/><rect x="16" y="16" fill="#000000ff"/><rect x="6" y="17" fill="#000000ff"/><rect x="7" y="17" fill="#ead9d9ff"/><rect x="8" y="17" fill="#ead9d9ff"/><rect x="9" y="17" fill="#ead9d9ff"/><rect x="10" y="17" fill="#000000ff"/><rect x="11" y="17" fill="#ead9d9ff"/><rect x="12" y="17" fill="#ead9d9ff"/><rect x="13" y="17" fill="#ead9d9ff"/><rect x="14" y="17" fill="#ead9d9ff"/><rect x="15" y="17" fill="#ead9d9ff"/><rect x="16" y="17" fill="#000000ff"/><rect x="6" y="18" fill="#000000ff"/><rect x="7" y="18" fill="#ead9d9ff"/><rect x="8" y="18" fill="#ead9d9ff"/><rect x="9" y="18" fill="#ead9d9ff"/><rect x="10" y="18" fill="#ead9d9ff"/><rect x="11" y="18" fill="#000000ff"/><rect x="12" y="18" fill="#000000ff"/><rect x="13" y="18" fill="#000000ff"/><rect x="14" y="18" fill="#ead9d9ff"/><rect x="15" y="18" fill="#ead9d9ff"/><rect x="16" y="18" fill="#000000ff"/><rect x="6" y="19" fill="#000000ff"/><rect x="7" y="19" fill="#ead9d9ff"/><rect x="8" y="19" fill="#ead9d9ff"/><rect x="9" y="19" fill="#ead9d9ff"/><rect x="10" y="19" fill="#ead9d9ff"/><rect x="11" y="19" fill="#ead9d9ff"/><rect x="12" y="19" fill="#ead9d9ff"/><rect x="13" y="19" fill="#ead9d9ff"/><rect x="14" y="19" fill="#ead9d9ff"/><rect x="15" y="19" fill="#ead9d9ff"/><rect x="16" y="19" fill="#000000ff"/><rect x="6" y="20" fill="#000000ff"/><rect x="7" y="20" fill="#ead9d9ff"/><rect x="8" y="20" fill="#ead9d9ff"/><rect x="9" y="20" fill="#ead9d9ff"/><rect x="10" y="20" fill="#ead9d9ff"/><rect x="11" y="20" fill="#ead9d9ff"/><rect x="12" y="20" fill="#ead9d9ff"/><rect x="13" y="20" fill="#ead9d9ff"/><rect x="14" y="20" fill="#ead9d9ff"/><rect x="15" y="20" fill="#000000ff"/><rect x="6" y="21" fill="#000000ff"/><rect x="7" y="21" fill="#ead9d9ff"/><rect x="8" y="21" fill="#ead9d9ff"/><rect x="9" y="21" fill="#ead9d9ff"/><rect x="10" y="21" fill="#000000ff"/><rect x="11" y="21" fill="#000000ff"/><rect x="12" y="21" fill="#000000ff"/><rect x="13" y="21" fill="#000000ff"/><rect x="14" y="21" fill="#000000ff"/><rect x="6" y="22" fill="#000000ff"/><rect x="7" y="22" fill="#ead9d9ff"/><rect x="8" y="22" fill="#ead9d9ff"/><rect x="9" y="22" fill="#ead9d9ff"/><rect x="10" y="22" fill="#000000ff"/><rect x="6" y="23" fill="#000000ff"/><rect x="7" y="23" fill="#ead9d9ff"/><rect x="8" y="23" fill="#ead9d9ff"/><rect x="9" y="23" fill="#ead9d9ff"/><rect x="10" y="23" fill="#000000ff"/></g></svg>